<svg xmlns="http://www.w3.org/2000/svg" viewBox="0 0 1200 900" width="1200" height="900" role="img">

  <rect width="1200" height="900" fill="#ecebe4"/>
  
  <g>
    <rect x="60" y="60" width="522" height="372" fill="#d8432b" stroke="#dddcd4" stroke-width="0"/>
    <g transform="translate(213,138) scale(0.72)">
    <rect x="58" y="58" width="184" height="38" fill="#ffffff"/>
    <polygon points="196,96 242,96 132,252 86,252" fill="#ffffff"/>
    <circle cx="76" cy="234" r="14" fill="#ffffff"/>
  </g>
  </g>

  <g>
    <rect x="618" y="60" width="522" height="372" fill="#151510" stroke="#dddcd4" stroke-width="0"/>
    <g transform="translate(771,138) scale(0.72)">
    <rect x="58" y="58" width="184" height="38" fill="#ffffff"/>
    <polygon points="196,96 242,96 132,252 86,252" fill="#ffffff"/>
    <circle cx="76" cy="234" r="14" fill="#ffffff"/>
  </g>
  </g>

  <g>
    <rect x="60" y="468" width="522" height="372" fill="#ffffff" stroke="#dddcd4" stroke-width="2"/>
    <g transform="translate(213,546) scale(0.72)">
    <rect x="58" y="58" width="184" height="38" fill="#d8432b"/>
    <polygon points="196,96 242,96 132,252 86,252" fill="#d8432b"/>
    <circle cx="76" cy="234" r="14" fill="#d8432b"/>
  </g>
  </g>

  <g>
    <rect x="618" y="468" width="522" height="372" fill="#ffffff" stroke="#dddcd4" stroke-width="2"/>
    <g transform="translate(771,546) scale(0.72)">
    <rect x="58" y="58" width="184" height="38" fill="#151510"/>
    <polygon points="196,96 242,96 132,252 86,252" fill="#151510"/>
    <circle cx="76" cy="234" r="14" fill="#151510"/>
  </g>
  </g>
  <text x="60" y="40" font-family="ui-monospace, 'SF Mono', Menlo, monospace" font-size="16" letter-spacing="2" fill="#85847c" opacity="1">KANAL 7 FILM FESTIVAL — APPLICATIONS</text>
  <text x="1140" y="878" text-anchor="end" font-family="ui-monospace, 'SF Mono', Menlo, monospace" font-size="15" letter-spacing="2" fill="#85847c" opacity="0.65">PLACEHOLDER — REPLACE WITH YOUR WORK</text>
  
</svg>
